<?xml version="1.0" encoding="UTF-8"?>
<!DOCTYPE svg PUBLIC "-//W3C//DTD SVG 1.0//EN" "http://www.w3.org/TR/2001/REC-SVG-20010904/DTD/svg10.dtd">
<!-- Creator: CorelDRAW 2020 (64-Bit) -->
<?xml-stylesheet href="facebook.css" type="text/css"?>
<svg xmlns="http://www.w3.org/2000/svg" xml:space="preserve" width="50mm" height="50mm" version="1.0" style="shape-rendering:geometricPrecision; text-rendering:geometricPrecision; image-rendering:optimizeQuality; fill-rule:evenodd; clip-rule:evenodd"
viewBox="0 0 5000 5000"
 xmlns:xlink="http://www.w3.org/1999/xlink"
 xmlns:xodm="http://www.corel.com/coreldraw/odm/2003">
 <g id="Слой_x0020_1">
  <metadata id="CorelCorpID_0Corel-Layer"/>
  <path class="fil0" d="M36 2358c0,601 71,1069 428,1562 392,541 1111,1042 1758,1042 637,0 794,43 1392,-254 275,-137 448,-272 653,-477 87,-87 170,-198 243,-297 515,-696 582,-1733 193,-2509 -182,-362 -494,-738 -836,-956 -878,-561 -1846,-557 -2733,-9 -589,364 -1097,1187 -1097,1899zm2196 -147l-354 0 1 413 353 0 1 1041 412 4 10 -1056 336 0c50,-113 53,-272 64,-401l-400 -1c0,-530 -29,-418 421,-467l-2 -358c-747,-131 -842,183 -842,824z"/>
 </g>
</svg>
