<?xml version="1.0" encoding="UTF-8"?>
<!DOCTYPE svg PUBLIC "-//W3C//DTD SVG 1.0//EN" "http://www.w3.org/TR/2001/REC-SVG-20010904/DTD/svg10.dtd">
<!-- Creator: CorelDRAW 2020 (64-Bit) -->
<?xml-stylesheet href="instagram.css" type="text/css"?>
<svg xmlns="http://www.w3.org/2000/svg" xml:space="preserve" width="50mm" height="50mm" version="1.0" style="shape-rendering:geometricPrecision; text-rendering:geometricPrecision; image-rendering:optimizeQuality; fill-rule:evenodd; clip-rule:evenodd"
viewBox="0 0 5000 5000"
 xmlns:xlink="http://www.w3.org/1999/xlink"
 xmlns:xodm="http://www.corel.com/coreldraw/odm/2003">
 <g id="Слой_x0020_1">
  <metadata id="CorelCorpID_0Corel-Layer"/>
  <path class="fil0" d="M38 2362c0,456 12,781 221,1204 243,493 596,889 1097,1137 616,305 750,262 1408,262 536,0 1160,-387 1505,-730 367,-366 681,-1018 681,-1554 0,-502 -13,-789 -245,-1253 -289,-576 -662,-892 -1220,-1163 -1132,-549 -2600,-30 -3193,1146 -115,229 -253,619 -253,950l-1 1zm2897 -565c0,234 -17,286 222,285 234,0 221,-23 221,-285 0,-184 -79,-158 -294,-158 -124,0 -148,39 -148,158l-1 0zm-572 307c-528,155 -329,1009 268,838 511,-146 325,-1013 -268,-838zm985 1254c66,-79 48,-864 19,-1009l-176 0c-21,291 47,374 -146,613 -286,356 -820,352 -1101,0 -146,-183 -145,-350 -146,-613l-176 0c-30,152 -11,502 -11,676 -1,394 -61,381 344,379l1324 -5c94,-27 25,9 70,-41l-1 0zm-2006 -1634l0 1621c0,238 104,328 341,328l1619 0c255,0 342,-100 342,-353l0 -1621c0,-237 -104,-328 -341,-328l-1621 0c-256,0 -341,100 -341,353l1 0z"/>
 </g>
</svg>
