<?xml version="1.0" encoding="UTF-8"?>
<!DOCTYPE svg PUBLIC "-//W3C//DTD SVG 1.0//EN" "http://www.w3.org/TR/2001/REC-SVG-20010904/DTD/svg10.dtd">
<!-- Creator: CorelDRAW 2020 (64-Bit) -->
<?xml-stylesheet href="logo.css" type="text/css"?>
<svg xmlns="http://www.w3.org/2000/svg" xml:space="preserve" width="250mm" height="150mm" version="1.0" style="shape-rendering:geometricPrecision; text-rendering:geometricPrecision; image-rendering:optimizeQuality; fill-rule:evenodd; clip-rule:evenodd"
viewBox="0 0 25000 15000"
 xmlns:xlink="http://www.w3.org/1999/xlink"
 xmlns:xodm="http://www.corel.com/coreldraw/odm/2003">
 <g id="Слой_x0020_1">
  <metadata id="CorelCorpID_0Corel-Layer"/>
  <path class="fil0" d="M5527 7374l0 51c0,66 83,127 152,127l669 0 0 1710 305 0 0 -1871c0,-60 -39,-105 -76,-127 -56,-33 -508,-17 -593,-17 62,-93 343,-445 428,-554l184 -240c298,-402 618,-789 918,-1190l306 -397c201,-269 414,-529 616,-798 300,-401 614,-792 918,-1190 67,-87 520,-691 559,-720 26,17 34,29 54,56l257 294c23,24 30,36 51,59 109,123 263,311 368,419 55,57 101,126 156,182 129,133 238,279 364,415l312 357c32,41 71,90 139,90l4166 0c92,0 135,-96 135,-178l0 -533 550 0 0 567c0,98 77,145 169,144l949 0c19,36 39,65 61,100 168,267 340,532 501,803l439 704c87,134 164,267 251,401l501 803c41,69 87,136 127,203 41,68 84,138 127,203l-1194 0c-96,0 -246,-7 -246,152l0 1863 305 0 0 -1710 1405 0c94,0 152,-73 152,-161 0,-73 -90,-182 -129,-244l-286 -459c-141,-236 -295,-463 -436,-699 -187,-313 -391,-615 -579,-928l-433 -693c-47,-79 -96,-156 -146,-235 -72,-114 -135,-236 -215,-344 -25,-34 -75,-64 -131,-64l-889 0 0 -559c0,-80 -64,-152 -144,-152l-889 0c-57,0 -127,70 -127,127l0 584 -3903 0c-32,0 -143,-145 -171,-176 -14,-16 -13,-18 -26,-33l-139 -157c-24,-24 -31,-39 -55,-64l-601 -686c-95,-107 -240,-290 -330,-381l-327 -376c-36,-45 -80,-92 -154,-92 -74,0 -103,40 -141,87 -152,187 -291,386 -442,574l-410 530c-24,32 -42,56 -66,86l-2377 3084c-47,59 -92,118 -137,177 -45,60 -91,116 -137,177l-612 793c-19,25 -56,68 -56,105zm6333 3344c0,289 37,562 188,794 217,336 542,510 955,510 132,0 288,-23 393,-56 381,-119 657,-447 740,-843 52,-249 61,-571 -10,-816 -19,-67 -36,-109 -61,-168 -82,-198 -234,-380 -415,-491 -121,-74 -178,-96 -325,-132 -234,-57 -599,-25 -782,65 -28,14 -47,21 -76,34 -125,60 -224,154 -313,254 -192,215 -294,563 -294,849zm1160 -990c475,0 860,459 860,1025 0,566 -385,1025 -860,1025 -475,0 -860,-459 -860,-1025 0,-566 385,-1025 860,-1025zm-6672 3361c0,82 75,152 119,152 2030,0 4034,-8 6062,-8 509,0 995,-8 1507,-8 508,0 1016,0 1524,0l2650 -8c73,0 115,7 167,-19 35,-18 79,-70 79,-116l0 -940 -305 0 0 770 -4310 8c-487,0 -947,8 -1431,8 -1927,0 -3829,8 -5757,8l0 -796 -305 0 0 948zm-271 -2405c-41,61 -399,459 -447,510 -17,18 -18,24 -34,42l-72 81c-27,27 -40,48 -68,76l-419 478c-19,19 -20,23 -35,41 -14,18 -22,22 -35,41 107,0 215,-1 322,0 79,1 74,-4 110,-51 93,-122 200,-235 299,-353l152 -178c18,-19 19,-23 34,-42l266 -310c25,-30 46,-60 72,-88l150 -180 0 1202 271 0 0 -1202c21,14 44,49 63,73l125 146c24,29 42,49 65,79l129 150c123,152 258,297 381,449l158 189c32,39 71,73 94,117l389 0 -413 -476c-28,-28 -41,-49 -68,-76 -19,-19 -19,-22 -35,-42 -87,-109 -189,-208 -278,-315l-208 -241c-36,-38 -79,-77 -108,-121 34,-51 84,-100 125,-146l326 -369c70,-70 126,-151 195,-220l263 -296c27,-26 115,-118 125,-155l-347 0c-53,79 -121,138 -178,212 -76,99 -165,192 -248,286l-152 178c-15,17 -15,21 -30,38 -84,94 -171,187 -248,286 -15,20 -103,135 -127,144l0 -1143c-337,0 -271,-55 -271,262l0 881 -141 -163c-50,-59 -92,-113 -144,-169l-642 -747c-24,-31 -37,-62 -88,-65 -97,-5 -214,1 -314,1 11,42 150,173 186,220 21,28 42,47 66,77 22,28 40,40 64,71 62,80 134,144 198,225l160 179c16,17 16,21 30,38l199 225c45,51 92,94 129,150zm8577 1295l288 0 0 -923c366,0 795,18 1037,-293 33,-42 61,-76 87,-125 153,-286 117,-736 -158,-946 -146,-111 -344,-169 -601,-169l-652 0 0 2455zm284 -2186l0 1002 437 0 182 -43 99 -56 106 -93 83 -165 17 -124 2 -119 -41 -154 -103 -137 -91 -58 -165 -48 -121 -10 -404 5zm4152 2186l745 0c375,0 676,-184 760,-526 15,-61 12,-98 22,-164 20,-131 -32,-325 -105,-435 -231,-349 -717,-288 -1126,-288l0 -1016c0,-20 -6,-25 -25,-25l-271 0 0 2455zm287 -1149l0 909 454 0 189 -39 103 -51 110 -84 86 -150 17 -113 2 -108 -43 -140 -107 -125 -95 -53 -172 -44 -126 -9 -420 5zm4150 -942c0,85 -8,159 -8,254l0 1837 288 0 0 -2455 -373 0 -493 777c-14,22 -27,40 -41,61l-125 197c-16,23 -24,37 -39,62l-623 977c0,-84 8,-153 8,-246l0 -1829 -288 0 0 2455 356 0c24,-46 55,-84 83,-129l335 -520c30,-46 53,-84 83,-129 224,-333 450,-711 674,-1045 60,-90 92,-139 140,-233 0,-1 8,-15 9,-17 10,-17 4,-9 14,-20zm-6917 2091l271 0c20,0 25,-6 25,-25l0 -1092 1262 0 0 1118 288 0 0 -2455 -288 0 0 1075 -1262 0 0 -1050c0,-20 -6,-25 -25,-25l-271 0 0 2455zm-12539 17c267,0 499,-50 677,-144l0 -279 -132 63c-51,20 -86,36 -144,51 -242,61 -497,74 -732,-29 -121,-53 -182,-109 -269,-197 -328,-332 -324,-1111 51,-1486 24,-24 38,-33 64,-55 25,-21 42,-33 69,-49 183,-110 300,-143 542,-143 219,0 407,68 550,144l0 -313c-40,-3 -216,-93 -474,-93 -247,0 -431,3 -655,116 -224,112 -423,297 -536,522 -82,165 -116,285 -140,470 -5,43 -3,95 -8,144 -25,225 46,547 157,734 213,358 543,545 979,545zm-2887 -2227l694 0 0 2184 288 0 0 -2184 703 0 0 -271 -1685 0 0 271zm9271 2210l271 0c20,0 25,-6 25,-25l0 -2159 982 0 0 -246c0,-20 -6,-25 -25,-25l-1253 0 0 2455zm10448 0l288 0 0 -2455 -288 0 0 2455zm1863 -2675c191,0 363,-16 502,-150 55,-54 80,-82 118,-153 30,-57 58,-137 58,-221l-254 0c-52,0 -13,108 -108,214 -83,93 -150,108 -273,108 -97,0 -181,-41 -224,-98 -40,-52 -58,-103 -68,-169 -11,-74 25,-55 -266,-55 -33,0 -23,35 -11,96 50,260 291,429 527,429z"/>
 </g>
</svg>
