<?xml version="1.0" encoding="UTF-8"?>
<!DOCTYPE svg PUBLIC "-//W3C//DTD SVG 1.0//EN" "http://www.w3.org/TR/2001/REC-SVG-20010904/DTD/svg10.dtd">
<!-- Creator: CorelDRAW 2020 (64-Bit) -->
<?xml-stylesheet href="tviter.css" type="text/css"?>
<svg xmlns="http://www.w3.org/2000/svg" xml:space="preserve" width="50mm" height="50mm" version="1.0" style="shape-rendering:geometricPrecision; text-rendering:geometricPrecision; image-rendering:optimizeQuality; fill-rule:evenodd; clip-rule:evenodd"
viewBox="0 0 5000 5000"
 xmlns:xlink="http://www.w3.org/1999/xlink"
 xmlns:xodm="http://www.corel.com/coreldraw/odm/2003">
 <g id="Слой_x0020_1">
  <metadata id="CorelCorpID_0Corel-Layer"/>
  <path class="fil0" d="M38 2357c0,601 71,1069 428,1562 392,541 1111,1042 1758,1042 637,0 794,43 1392,-254 275,-137 448,-272 653,-477 367,-366 681,-1018 681,-1554 0,-502 -13,-789 -245,-1253 -289,-576 -662,-892 -1220,-1163 -577,-280 -1385,-279 -1965,-8 -139,65 -258,127 -385,205 -340,210 -664,593 -844,949 -116,229 -253,619 -253,950zm2430 -226c-255,-12 -384,-58 -591,-163 -172,-87 -214,-137 -332,-259 -18,-18 -32,-33 -50,-48 -55,-45 -17,-19 -57,-38 -156,202 -12,560 136,648l-210 -44c25,322 197,389 375,496l-187 17c114,309 199,220 445,349 -240,179 -360,167 -696,211 883,544 2149,36 2172,-1295 96,-55 156,-131 226,-233l-240 59c75,-107 116,-76 184,-260 -127,40 -234,130 -355,67 -141,-73 -164,-141 -398,-112 -296,37 -430,277 -423,605z"/>
 </g>
</svg>
