<?xml version="1.0" encoding="UTF-8"?>
<!DOCTYPE svg PUBLIC "-//W3C//DTD SVG 1.0//EN" "http://www.w3.org/TR/2001/REC-SVG-20010904/DTD/svg10.dtd">
<!-- Creator: CorelDRAW 2020 (64-Bit) -->
<?xml-stylesheet href="vk.css" type="text/css"?>
<svg xmlns="http://www.w3.org/2000/svg" xml:space="preserve" width="50mm" height="50mm" version="1.0" style="shape-rendering:geometricPrecision; text-rendering:geometricPrecision; image-rendering:optimizeQuality; fill-rule:evenodd; clip-rule:evenodd"
viewBox="0 0 5000 5000"
 xmlns:xlink="http://www.w3.org/1999/xlink"
 xmlns:xodm="http://www.corel.com/coreldraw/odm/2003">
 <g id="Слой_x0020_1">
  <metadata id="CorelCorpID_0Corel-Layer"/>
  <path class="fil0" d="M41 2408l0 196c4,6 2,0 4,11l7 126c13,124 36,257 66,376 39,154 94,300 156,433 83,178 169,308 280,456l134 160c14,13 23,23 37,37l150 145c170,162 477,342 679,425 18,8 36,13 53,20l163 58c40,11 74,22 115,33 119,30 251,53 376,66l133 9c1,0 2,1 3,2l196 0 29 -5c85,-1 149,-8 238,-22 252,-40 451,-100 678,-205 143,-66 291,-158 414,-248 16,-11 25,-20 41,-32l82 -65c15,-14 24,-20 39,-34l221 -221c132,-133 315,-437 380,-577 61,-133 117,-279 156,-433 32,-127 72,-341 71,-478l4 -31c0,-1 1,-2 2,-3l0 -196c-1,-1 -1,-3 -2,-3l-4 -31c1,-137 -39,-351 -71,-478 -10,-41 -21,-75 -33,-115 -65,-232 -211,-503 -340,-690l-268 -321c-10,-10 -12,-9 -22,-17 -7,-6 -11,-10 -17,-17l-76 -71c-35,-35 -161,-132 -205,-163 -364,-251 -735,-393 -1180,-439 -33,-3 -126,-4 -137,-11l-196 0c-14,9 -49,4 -68,5 -285,23 -406,55 -668,141 -231,76 -476,224 -664,366l-308 281c-15,15 -20,24 -34,39l-67 80c-126,161 -220,299 -312,497 -37,81 -101,239 -123,318 -51,184 -78,294 -98,490 -3,33 -4,126 -11,137zm3910 -796l-363 0c-122,0 -142,87 -181,169 -38,81 -76,155 -116,233 -74,145 -211,348 -323,461 -31,32 -122,112 -167,63 -32,-34 -25,-91 -25,-145 0,-111 5,-647 -4,-699 -9,-54 -37,-82 -96,-82l-559 0c-52,0 -89,27 -95,72 -12,86 141,140 141,366l0 525c0,271 -193,52 -241,-11 -82,-108 -181,-265 -241,-393 -13,-29 -28,-59 -41,-86 -27,-57 -49,-111 -77,-178 -65,-151 -65,-296 -216,-296l-363 0c-118,0 -131,68 -109,175 69,329 304,745 488,1017 95,140 150,218 267,337 166,169 455,377 796,409 92,8 197,10 279,-18 91,-31 71,-132 71,-235 0,-212 -38,-351 124,-322 42,7 71,27 105,47 83,49 107,83 166,133l257 268c40,37 67,78 122,109 39,22 76,24 126,24 100,0 200,0 299,0 101,0 179,-25 152,-141 -9,-39 -51,-114 -74,-146 -54,-72 -107,-148 -169,-214 -58,-62 -74,-87 -143,-156 -61,-62 -201,-180 -198,-253 2,-51 136,-225 174,-283 110,-170 251,-379 328,-574 40,-102 29,-175 -95,-175z"/>
 </g>
</svg>
