<?xml version="1.0" encoding="UTF-8"?>
<!DOCTYPE svg PUBLIC "-//W3C//DTD SVG 1.0//EN" "http://www.w3.org/TR/2001/REC-SVG-20010904/DTD/svg10.dtd">
<!-- Creator: CorelDRAW 2020 (64-Bit) -->
<?xml-stylesheet href="watsapp.css" type="text/css"?>
<svg xmlns="http://www.w3.org/2000/svg" xml:space="preserve" width="50mm" height="50mm" version="1.0" style="shape-rendering:geometricPrecision; text-rendering:geometricPrecision; image-rendering:optimizeQuality; fill-rule:evenodd; clip-rule:evenodd"
viewBox="0 0 5000 5000"
 xmlns:xlink="http://www.w3.org/1999/xlink"
 xmlns:xodm="http://www.corel.com/coreldraw/odm/2003">
 <g id="Слой_x0020_1">
  <metadata id="CorelCorpID_0Corel-Layer"/>
  <path class="fil0" d="M2407 79c-389,25 -677,85 -1024,262 -152,76 -271,161 -389,254 -85,68 -186,152 -254,229 -8,17 -25,34 -34,42 -17,17 -25,25 -42,42 -195,220 -373,550 -466,830 -119,339 -152,754 -85,1135 25,178 76,347 135,500 34,85 68,144 102,220 59,119 59,76 17,246 -51,169 -102,330 -144,500 -51,169 -93,339 -135,508 -42,135 25,93 161,59l1024 -262c119,-34 68,-25 237,51 508,220 1092,271 1634,127 347,-102 618,-254 855,-440 169,-135 339,-313 466,-491 474,-694 584,-1490 279,-2286 -93,-229 -203,-423 -347,-610 -25,-34 -51,-68 -76,-93l-76 -85c-186,-195 -449,-398 -762,-533 -288,-127 -703,-229 -1075,-203l0 0zm-559 1211c-152,25 -271,169 -330,296 -144,339 25,677 178,974 135,262 330,542 542,728 212,186 516,415 796,457 195,34 373,-42 474,-135 51,-51 76,-127 102,-220 17,-85 -51,-110 -135,-178 -51,-34 -330,-246 -373,-254 -51,-25 -85,0 -110,25l-178 144c-34,25 -76,17 -110,-8 -144,-93 -246,-178 -347,-288 -25,-25 -51,-51 -76,-85 -59,-85 -127,-186 -178,-288 -17,-42 -85,-186 -85,-237 8,-42 42,-59 76,-85 25,-17 59,-42 85,-68 93,-85 68,-135 51,-229 -17,-85 -42,-161 -59,-254 -17,-76 -25,-186 -68,-246 -51,-51 -169,-68 -254,-51zm-1160 3031c102,-17 500,-119 627,-152 119,-25 110,-17 195,34 533,271 1101,339 1676,135 737,-262 1278,-1016 1278,-1803 0,-313 -59,-601 -169,-855 -119,-271 -254,-457 -415,-618 -169,-169 -398,-305 -627,-398 -254,-93 -584,-161 -881,-152 -423,17 -821,178 -1109,432 -144,135 -254,246 -373,406 -110,161 -195,305 -262,508 -186,559 -110,1160 186,1668 42,68 68,85 42,178l-110 406c-17,68 -42,135 -59,212z"/>
 </g>
</svg>
