<?xml version="1.0" encoding="UTF-8"?>
<!DOCTYPE svg PUBLIC "-//W3C//DTD SVG 1.0//EN" "http://www.w3.org/TR/2001/REC-SVG-20010904/DTD/svg10.dtd">
<!-- Creator: CorelDRAW 2020 (64-Bit) -->
<?xml-stylesheet href="wiber.css" type="text/css"?>
<svg xmlns="http://www.w3.org/2000/svg" xml:space="preserve" width="50mm" height="50mm" version="1.0" style="shape-rendering:geometricPrecision; text-rendering:geometricPrecision; image-rendering:optimizeQuality; fill-rule:evenodd; clip-rule:evenodd"
viewBox="0 0 5000 5000"
 xmlns:xlink="http://www.w3.org/1999/xlink"
 xmlns:xodm="http://www.corel.com/coreldraw/odm/2003">
 <g id="Слой_x0020_1">
  <metadata id="CorelCorpID_0Corel-Layer"/>
  <path class="fil0" d="M21 2506c0,367 81,729 219,1026 70,150 139,267 225,395 73,109 272,340 362,412 18,15 23,20 41,36 153,141 439,314 613,391 645,283 1401,290 2043,-13 156,-73 466,-254 600,-393 16,-16 27,-20 42,-35 85,-83 128,-127 203,-214 7,-8 12,-11 19,-20l68 -86c652,-849 669,-2032 53,-2914 -93,-134 -168,-217 -283,-332l-137 -126c-8,-7 -11,-12 -19,-19 -11,-9 -10,-7 -22,-17 -11,-9 -10,-8 -21,-17 -18,-14 -26,-20 -44,-33 -152,-114 -290,-201 -481,-287 -641,-288 -1408,-291 -2046,10 -148,70 -273,141 -386,223 -109,78 -245,184 -333,282 -22,24 -54,50 -73,74l-71 83c-362,452 -571,963 -571,1574zm1733 1081l-1 553c25,-13 56,-49 78,-71l409 -435c15,-19 19,-24 51,-25l203 3c210,0 420,-18 611,-61 178,-40 332,-91 466,-203 39,-33 49,-44 83,-82 22,-26 51,-67 70,-100 42,-77 72,-150 95,-239 97,-366 94,-828 3,-1195 -49,-198 -137,-321 -251,-418 -260,-221 -792,-284 -1193,-279 -327,4 -765,103 -968,295 -83,79 -133,127 -190,237 -64,124 -97,297 -115,451 -44,369 -35,885 177,1190 30,44 95,115 138,147 49,38 104,76 173,107 36,16 63,27 98,44 45,22 61,22 62,81zm55 -2053c-117,26 -215,125 -241,243 -30,132 47,276 97,375 76,150 180,320 282,442 59,70 138,163 207,221 13,11 17,18 30,30 13,13 20,15 34,27 166,151 344,257 551,359 43,22 123,60 170,71 187,44 536,-278 319,-440l-100 -81c-119,-93 -284,-227 -401,-105 -81,86 -99,179 -309,57 -159,-92 -278,-207 -353,-376 -93,-209 64,-218 124,-307 43,-63 4,-126 -25,-182 -29,-55 -61,-101 -94,-148 -33,-47 -129,-158 -181,-181 -36,-16 -72,-15 -111,-7zm1489 887c53,-88 -19,-357 -58,-450 -46,-111 -111,-184 -182,-257 -14,-15 -42,-36 -60,-49 -69,-52 -131,-83 -218,-111 -57,-19 -117,-32 -180,-40 -53,-7 -160,-32 -171,29 -11,66 50,48 150,68 315,62 501,205 595,502 76,237 0,332 122,309zm-764 -706c-53,12 -52,77 -13,92 28,11 94,18 127,27 161,42 274,125 323,291 44,149 11,228 88,216 69,-11 26,-200 11,-249 -44,-141 -154,-264 -291,-323 -48,-21 -194,-65 -245,-54zm62 223c-48,14 -53,72 -3,87 71,21 159,27 191,149 12,45 7,109 65,100 73,-12 33,-176 -19,-233 -35,-38 -141,-131 -234,-102z"/>
 </g>
</svg>
