<?xml version="1.0" encoding="UTF-8"?>
<!DOCTYPE svg PUBLIC "-//W3C//DTD SVG 1.0//EN" "http://www.w3.org/TR/2001/REC-SVG-20010904/DTD/svg10.dtd">
<!-- Creator: CorelDRAW 2020 (64-Bit) -->
<?xml-stylesheet href="youtube.css" type="text/css"?>
<svg xmlns="http://www.w3.org/2000/svg" xml:space="preserve" width="50mm" height="50mm" version="1.0" style="shape-rendering:geometricPrecision; text-rendering:geometricPrecision; image-rendering:optimizeQuality; fill-rule:evenodd; clip-rule:evenodd"
viewBox="0 0 5000 5000"
 xmlns:xlink="http://www.w3.org/1999/xlink"
 xmlns:xodm="http://www.corel.com/coreldraw/odm/2003">
 <g id="Слой_x0020_1">
  <metadata id="CorelCorpID_0Corel-Layer"/>
  <path class="fil0" d="M2471 86c-208,13 -327,13 -537,66 -475,120 -836,335 -1156,654 -13,13 -24,25 -36,39l-53 57c-7,8 -11,14 -18,21 -43,45 -128,161 -165,213 -278,397 -421,880 -421,1392 0,359 92,695 221,983 118,263 248,429 423,632l76 77c437,439 1095,714 1724,694 690,-21 1237,-269 1693,-721 197,-195 378,-472 488,-720 135,-304 204,-631 204,-1005 0,-541 -210,-1095 -541,-1492l-182 -199c-210,-208 -440,-363 -719,-489 -274,-124 -696,-222 -1001,-203zm-968 1455c-172,16 -285,120 -341,241 -37,80 -35,162 -35,259l0 873c0,196 -9,304 141,446 44,42 117,80 194,94 76,14 205,7 287,7 487,0 974,0 1461,0 89,0 206,6 292,-2 162,-16 286,-125 337,-244 38,-91 34,-153 34,-258l0 -873c0,-203 7,-300 -141,-444 -45,-44 -129,-82 -195,-94 -76,-14 -201,-7 -285,-7l-1461 0c-88,0 -204,-6 -288,2zm722 1421l683 -449c17,-12 89,-55 97,-66 -10,-10 -744,-496 -780,-514l0 1029z"/>
 </g>
</svg>
